<?xml version="1.0" encoding="utf-8"?>
<!-- Generator: Adobe Illustrator 16.0.4, SVG Export Plug-In . SVG Version: 6.00 Build 0)  -->
<!DOCTYPE svg PUBLIC "-//W3C//DTD SVG 1.1//EN" "http://www.w3.org/Graphics/SVG/1.1/DTD/svg11.dtd">
<svg version="1.1" id="Ebene_1" xmlns="http://www.w3.org/2000/svg" xmlns:xlink="http://www.w3.org/1999/xlink" x="0px" y="0px"
	 width="200px" height="93.5px" viewBox="0 0 200 93.5" enable-background="new 0 0 200 93.5" xml:space="preserve">
<g>
	<g>
		
			<linearGradient id="SVGID_1_" gradientUnits="userSpaceOnUse" x1="569.4072" y1="805.6328" x2="569.4072" y2="733.7324" gradientTransform="matrix(1 0 0 1 -545 -717)">
			<stop  offset="0" style="stop-color:#E22417"/>
			<stop  offset="1" style="stop-color:#BE1B23"/>
		</linearGradient>
		<polygon fill="url(#SVGID_1_)" stroke="#A31C5C" stroke-width="0.5" stroke-miterlimit="10" points="47.816,16.732 34.142,88.633 
			16.814,88.633 1,52.835 13.577,41.729 23.458,67.091 23.695,68.516 23.934,67.686 32.433,30.62 		"/>
		
			<linearGradient id="SVGID_2_" gradientUnits="userSpaceOnUse" x1="607.3623" y1="805.6328" x2="607.3623" y2="717.6211" gradientTransform="matrix(1 0 0 1 -545 -717)">
			<stop  offset="0" style="stop-color:#E22417"/>
			<stop  offset="1" style="stop-color:#BE1B23"/>
		</linearGradient>
		<path fill="url(#SVGID_2_)" stroke="#A31C5C" stroke-width="0.5" stroke-miterlimit="10" d="M68.649,11.921l-12.573,12.4V11.728
			L68.649,0.62V11.921z M68.649,88.633H56.077V33.066H68.65L68.649,88.633L68.649,88.633z"/>
		
			<linearGradient id="SVGID_3_" gradientUnits="userSpaceOnUse" x1="650.4727" y1="806.7432" x2="650.4727" y2="750.0664" gradientTransform="matrix(1 0 0 1 -545 -717)">
			<stop  offset="0" style="stop-color:#E22417"/>
			<stop  offset="1" style="stop-color:#BE1B23"/>
		</linearGradient>
		<path fill="url(#SVGID_3_)" stroke="#A31C5C" stroke-width="0.5" stroke-miterlimit="10" d="M97.078,89.743
			c-5.993,0-10.466-1.897-13.463-5.446c-2.996-3.548-4.579-8.852-4.579-15.947V33.066H91.61l-0.035,35.627
			c0,2.717,0.586,4.755,1.761,6.113c1.175,1.357,2.767,2.342,5.114,2.342h12.848c2.351,0,5.128-0.982,6.302-2.342
			c1.176-1.358,1.738-3.426,1.738-6.146V33.066h12.573V68.41c0,7.1-1.657,12.339-4.654,15.887
			c-2.997,3.549-7.503,5.446-13.496,5.446H97.078L97.078,89.743z"/>
		
			<linearGradient id="SVGID_4_" gradientUnits="userSpaceOnUse" x1="715.5781" y1="805.6328" x2="715.5781" y2="750.0674" gradientTransform="matrix(1 0 0 1 -545 -717)">
			<stop  offset="0" style="stop-color:#E22417"/>
			<stop  offset="1" style="stop-color:#BE1B23"/>
		</linearGradient>
		<path fill="url(#SVGID_4_)" stroke="#8E124B" stroke-width="0.5" stroke-miterlimit="10" d="M186.193,76.462
			c2.857-0.771,5.233-1.946,7.106-3.534c3.546-3.002,5.438-7.482,5.438-13.486v-7.825c0-6.003-1.893-10.518-5.438-13.521
			c-3.542-3-8.772-5.029-15.858-5.029h-3.85h-31.436v55.566h12.572V46.029h22.963c2.717,0,4.777,0.564,6.134,1.74
			c1.356,1.177,2.34,3.961,2.34,6.312v3.986c0,2.353-0.979,3.947-2.34,5.123c-1.354,1.178-3.392,1.765-6.104,1.765l-14.136-0.032
			l0.349,6.926l18.793,16.785H199L186.193,76.462z"/>
	</g>
</g>
</svg>
