<?xml version="1.0" encoding="utf-8"?>
<!-- Generator: Adobe Illustrator 16.0.0, SVG Export Plug-In . SVG Version: 6.00 Build 0)  -->
<!DOCTYPE svg PUBLIC "-//W3C//DTD SVG 1.1//EN" "http://www.w3.org/Graphics/SVG/1.1/DTD/svg11.dtd">
<svg version="1.1" id="Ebene_1" xmlns="http://www.w3.org/2000/svg" xmlns:xlink="http://www.w3.org/1999/xlink" x="0px" y="0px"
	 width="64px" height="64px" viewBox="0 0 64 64" enable-background="new 0 0 64 64" xml:space="preserve">
<g>
	<g>
		<circle fill="#801D18" cx="10.685" cy="53.376" r="9.299"/>
		<path fill="#66160E" d="M10.686,63.039c-5.328,0-9.664-4.335-9.664-9.663c0-5.329,4.336-9.665,9.664-9.665
			c5.329,0,9.664,4.336,9.664,9.665C20.35,58.704,16.015,63.039,10.686,63.039z M10.686,44.441c-4.926,0-8.935,4.009-8.935,8.935
			s4.009,8.935,8.935,8.935c4.925,0,8.934-4.009,8.934-8.935S15.61,44.441,10.686,44.441z"/>
	</g>
	<g>
		<circle fill="#801D18" cx="30.984" cy="13.991" r="12.582"/>
		<path fill="#66160E" d="M30.984,26.936c-7.138,0-12.945-5.807-12.945-12.945c0-7.139,5.808-12.946,12.945-12.946
			c7.139,0,12.945,5.808,12.945,12.946C43.93,21.129,38.123,26.936,30.984,26.936z M30.984,1.774
			c-6.735,0-12.216,5.48-12.216,12.217c0,6.736,5.48,12.217,12.216,12.217c6.737,0,12.217-5.48,12.217-12.217
			C43.201,7.254,37.722,1.774,30.984,1.774z"/>
	</g>
	<g>
		<g>
			<polygon fill="#C6C6C6" points="11.48,49.9 11.48,36.432 52.488,36.432 52.488,48.932 53.954,48.932 53.954,34.965 32.25,34.965 
				32.25,14.406 30.783,14.406 30.783,34.965 10.017,34.965 10.017,49.9 			"/>
			<path fill="#9C9B9B" d="M11.663,50.084H9.834V34.783h20.767v-20.56h1.831v20.56h21.704v14.331h-1.83v-12.5H11.663V50.084z
				 M10.197,49.719h1.101v-13.47H52.67v12.502h1.102V35.148H32.067v-20.56h-1.103v20.56H10.197V49.719z"/>
		</g>
	</g>
	<g>
		<linearGradient id="SVGID_1_" gradientUnits="userSpaceOnUse" x1="18.8213" y1="12.8374" x2="42.3086" y2="12.8374">
			<stop  offset="0" style="stop-color:#E30613"/>
			<stop  offset="1" style="stop-color:#BE1622"/>
		</linearGradient>
		<ellipse fill="url(#SVGID_1_)" cx="30.565" cy="12.837" rx="11.744" ry="11.428"/>
		<path fill="#A42423" d="M30.566,24.63c-6.676,0-12.109-5.291-12.109-11.793c0-6.503,5.434-11.793,12.109-11.793
			c6.675,0,12.106,5.29,12.106,11.793C42.673,19.34,37.241,24.63,30.566,24.63z M30.566,1.774c-6.275,0-11.38,4.962-11.38,11.063
			c0,6.101,5.104,11.063,11.38,11.063c6.273,0,11.377-4.963,11.377-11.063C41.943,6.736,36.84,1.774,30.566,1.774z"/>
	</g>
	<g>
		<linearGradient id="SVGID_2_" gradientUnits="userSpaceOnUse" x1="1.6953" y1="52.5225" x2="19.0527" y2="52.5225">
			<stop  offset="0" style="stop-color:#E30613"/>
			<stop  offset="1" style="stop-color:#BE1622"/>
		</linearGradient>
		<ellipse fill="url(#SVGID_2_)" cx="10.374" cy="52.522" rx="8.679" ry="8.446"/>
		<path fill="#A42423" d="M10.375,61.334c-4.987,0-9.045-3.952-9.045-8.812c0-4.858,4.058-8.812,9.045-8.812
			c4.985,0,9.043,3.953,9.043,8.812C19.418,57.382,15.36,61.334,10.375,61.334z M10.375,44.441c-4.586,0-8.314,3.625-8.314,8.081
			c0,4.457,3.729,8.083,8.314,8.083c4.585,0,8.312-3.626,8.312-8.083C18.688,48.066,14.96,44.441,10.375,44.441z"/>
	</g>
	<g>
		<circle fill="#801D18" cx="53.17" cy="53.376" r="9.299"/>
		<path fill="#66160E" d="M53.17,63.039c-5.329,0-9.663-4.335-9.663-9.663c0-5.329,4.334-9.665,9.663-9.665s9.664,4.336,9.664,9.665
			C62.834,58.704,58.499,63.039,53.17,63.039z M53.17,44.441c-4.926,0-8.934,4.009-8.934,8.935s4.008,8.935,8.934,8.935
			s8.935-4.009,8.935-8.935S58.096,44.441,53.17,44.441z"/>
	</g>
	<g>
		<linearGradient id="SVGID_3_" gradientUnits="userSpaceOnUse" x1="44.1797" y1="52.5225" x2="61.5371" y2="52.5225">
			<stop  offset="0" style="stop-color:#E30613"/>
			<stop  offset="1" style="stop-color:#BE1622"/>
		</linearGradient>
		<ellipse fill="url(#SVGID_3_)" cx="52.858" cy="52.522" rx="8.679" ry="8.446"/>
		<path fill="#A42423" d="M52.859,61.334c-4.986,0-9.044-3.952-9.044-8.812c0-4.858,4.058-8.812,9.044-8.812
			s9.044,3.953,9.044,8.812C61.903,57.382,57.846,61.334,52.859,61.334z M52.859,44.441c-4.586,0-8.313,3.625-8.313,8.081
			c0,4.457,3.728,8.083,8.313,8.083c4.585,0,8.313-3.626,8.313-8.083C61.173,48.066,57.444,44.441,52.859,44.441z"/>
	</g>
</g>
</svg>
