<?xml version="1.0" encoding="utf-8"?>
<!-- Generator: Adobe Illustrator 16.0.0, SVG Export Plug-In . SVG Version: 6.00 Build 0)  -->
<!DOCTYPE svg PUBLIC "-//W3C//DTD SVG 1.1//EN" "http://www.w3.org/Graphics/SVG/1.1/DTD/svg11.dtd">
<svg version="1.1" id="Ebene_1" xmlns="http://www.w3.org/2000/svg" xmlns:xlink="http://www.w3.org/1999/xlink" x="0px" y="0px"
	 width="64px" height="64px" viewBox="0 0 64 64" enable-background="new 0 0 64 64" xml:space="preserve">
<g>
	<g>
		<g>
			<polygon fill="#3C3C3B" points="50.742,4.574 50.742,11.757 27.215,11.757 27.215,4.574 14.15,4.574 14.15,63.805 63.806,63.805 
				63.806,4.574 			"/>
			<path fill="#1D1D1B" d="M64,64H13.956V4.379h13.452v7.185h23.14V4.379H64V64z M14.343,63.61h49.271V4.768H50.935v7.184H27.021
				V4.768H14.343V63.61z"/>
		</g>
		<g>
			<linearGradient id="SVGID_1_" gradientUnits="userSpaceOnUse" x1="27.332" y1="2.1904" x2="50.6255" y2="66.1886">
				<stop  offset="0" style="stop-color:#FFFFFF"/>
				<stop  offset="1" style="stop-color:#ECECEC"/>
			</linearGradient>
			<polygon fill="url(#SVGID_1_)" points="50.008,6.423 50.008,13.158 27.948,13.158 27.948,6.423 15.699,6.423 15.699,61.955 
				62.257,61.955 62.257,6.423 			"/>
			<path fill="#9D9D9C" d="M62.545,62.246H15.411V6.133H28.24v6.735h21.476V6.133h12.829V62.246z M15.991,61.665h45.974V6.714
				H50.296v6.735H27.66V6.714H15.991V61.665z"/>
		</g>
		<rect x="21.411" y="19.991" fill="#BD1622" width="2.05" height="2.049"/>
		<rect x="21.411" y="27.212" fill="#BD1622" width="2.05" height="2.049"/>
		<rect x="21.411" y="34.434" fill="#BD1622" width="2.05" height="2.051"/>
		<rect x="21.411" y="41.657" fill="#BD1622" width="2.05" height="2.048"/>
		<rect x="21.411" y="48.877" fill="#BD1622" width="2.05" height="2.05"/>
	</g>
	<g>
		<g>
			<linearGradient id="SVGID_2_" gradientUnits="userSpaceOnUse" x1="26.5547" y1="-1.4912" x2="51.4002" y2="66.7714">
				<stop  offset="0" style="stop-color:#9D9D9C"/>
				<stop  offset="1" style="stop-color:#3C3C3B"/>
			</linearGradient>
			<polygon fill="url(#SVGID_2_)" points="50.742,3.023 50.742,10.207 27.215,10.207 27.215,3.023 14.15,3.023 14.15,62.256 
				63.806,62.256 63.806,3.023 			"/>
			<path fill="#6F6F6F" d="M64,62.449H13.956V2.829h13.452v7.184h23.14V2.829H64V62.449z M14.343,62.062h49.271V3.216H50.935V10.4
				H27.021V3.216H14.343V62.062z"/>
		</g>
		<g>
			<linearGradient id="SVGID_3_" gradientUnits="userSpaceOnUse" x1="28.6475" y1="3.75" x2="50.7872" y2="64.5786">
				<stop  offset="0" style="stop-color:#FFFFFF"/>
				<stop  offset="1" style="stop-color:#F5F5F5"/>
			</linearGradient>
			<path fill="url(#SVGID_3_)" d="M50.008,4.873v6.735h-22.06V4.873h-2.384L15.7,15.398c0,0,0,33.745-0.001,43.997
				c22.261,0,46.558,1.009,46.558,1.009V4.873H50.008z"/>
			<path fill="#9D9D9C" d="M62.545,60.709l-0.302-0.013c-0.242-0.011-24.544-1.011-46.544-1.011h-0.288V15.283L25.438,4.582h2.803
				v6.735h21.476V4.582h12.829V60.709z M15.991,59.105c20.602,0.007,43.111,0.883,45.974,0.997V5.164H50.296v6.735H27.66V5.164
				h-1.97l-9.698,10.35L15.991,59.105z"/>
		</g>
		<rect x="21.411" y="18.44" fill="#BD1622" width="2.05" height="2.048"/>
		<rect x="21.411" y="25.662" fill="#BD1622" width="2.05" height="2.049"/>
		<rect x="21.411" y="32.884" fill="#BD1622" width="2.05" height="2.049"/>
		<rect x="21.411" y="40.105" fill="#BD1622" width="2.05" height="2.05"/>
		<rect x="21.411" y="47.328" fill="#BD1622" width="2.05" height="2.048"/>
		<g>
			<linearGradient id="SVGID_4_" gradientUnits="userSpaceOnUse" x1="19.3604" y1="7.0439" x2="22.7104" y2="16.2482">
				<stop  offset="0" style="stop-color:#FFFFFF"/>
				<stop  offset="1" style="stop-color:#EBEBEB"/>
			</linearGradient>
			<polygon fill="url(#SVGID_4_)" points="25.312,4.877 15.625,15.301 25.312,15.301 			"/>
			<path fill="#9D9D9C" d="M25.312,15.591h-9.687c-0.116,0-0.221-0.068-0.267-0.173c-0.047-0.107-0.024-0.23,0.054-0.314L25.1,4.679
				c0.082-0.087,0.208-0.117,0.318-0.073c0.111,0.044,0.185,0.15,0.185,0.271v10.424C25.603,15.462,25.473,15.591,25.312,15.591z
				 M16.292,15.01h8.729V5.617L16.292,15.01z"/>
		</g>
	</g>
	<g>
		<polygon fill="#6F6F6E" points="55.37,18.976 55.37,20.856 52.602,20.856 52.602,19.681 52.377,19.47 52.377,21.079 
			55.594,21.079 55.594,18.729 		"/>
		<polygon fill="#6F6F6E" points="52.602,18.012 55.218,18.012 55.487,17.789 52.377,17.789 52.377,18.701 52.602,18.558 		"/>
		<polygon fill="#BD1622" points="53.025,18.551 52.256,19.045 53.738,20.452 57.084,16.74 53.792,19.502 		"/>
	</g>
	<g>
		<polygon fill="#6F6F6E" points="55.37,26.203 55.37,28.083 52.602,28.083 52.602,26.909 52.377,26.696 52.377,28.308 
			55.594,28.308 55.594,25.955 		"/>
		<polygon fill="#6F6F6E" points="52.602,25.24 55.218,25.24 55.487,25.016 52.377,25.016 52.377,25.928 52.602,25.785 		"/>
		<polygon fill="#BD1622" points="53.025,25.778 52.256,26.272 53.738,27.68 57.084,23.97 53.792,26.728 		"/>
	</g>
	<g>
		<polygon fill="#6F6F6E" points="55.37,33.238 55.37,35.119 52.602,35.119 52.602,33.943 52.377,33.73 52.377,35.341 
			55.594,35.341 55.594,32.989 		"/>
		<polygon fill="#6F6F6E" points="52.602,32.274 55.218,32.274 55.487,32.051 52.377,32.051 52.377,32.963 52.602,32.819 		"/>
		<polygon fill="#BD1622" points="53.025,32.813 52.256,33.308 53.738,34.715 57.084,31.002 53.792,33.764 		"/>
	</g>
	<g>
		<path fill="#6F6F6E" d="M55.559,42.756h-3.217v-3.183h3.217V42.756z M52.632,42.465h2.638v-2.604h-2.638V42.465z"/>
	</g>
	<g>
		<path fill="#6F6F6E" d="M55.559,50.017h-3.217v-3.184h3.217V50.017z M52.632,49.727h2.638v-2.603h-2.638V49.727z"/>
	</g>
	<g>
		<polygon fill="#A42423" points="49.85,11.293 28.2,11.293 27.203,9.062 50.625,9.062 		"/>
		<path fill="#801D18" d="M49.85,11.487H28.2c-0.076,0-0.146-0.045-0.177-0.114L27.026,9.14C27,9.08,27.005,9.011,27.04,8.956
			c0.037-0.055,0.098-0.088,0.163-0.088h23.422c0.064,0,0.122,0.03,0.159,0.082C50.82,9,50.829,9.065,50.809,9.125l-0.776,2.232
			C50.006,11.435,49.932,11.487,49.85,11.487z M28.325,11.1h21.388l0.64-1.845h-22.85L28.325,11.1z"/>
	</g>
	<g>
		<linearGradient id="SVGID_5_" gradientUnits="userSpaceOnUse" x1="27.2031" y1="4.6875" x2="50.625" y2="4.6875">
			<stop  offset="0" style="stop-color:#E30613"/>
			<stop  offset="1" style="stop-color:#BE1622"/>
		</linearGradient>
		<rect x="27.203" y="0.314" fill="url(#SVGID_5_)" width="23.422" height="8.748"/>
		<path fill="#801D18" d="M50.625,9.255H27.203c-0.106,0-0.194-0.087-0.194-0.193V0.314c0-0.106,0.088-0.193,0.194-0.193h23.422
			c0.106,0,0.194,0.087,0.194,0.193v8.748C50.819,9.168,50.731,9.255,50.625,9.255z M27.397,8.868h23.035V0.508H27.397V8.868z"/>
	</g>
	<g>
		<path fill="#3C3C3B" d="M26.352,25.984c-0.138,0-0.244,0.056-0.32,0.17c-0.078,0.112-0.117,0.268-0.117,0.465
			c0,0.413,0.158,0.619,0.472,0.619c0.095,0,0.186-0.013,0.273-0.04c0.091-0.026,0.18-0.059,0.269-0.096v0.489
			c-0.178,0.079-0.38,0.119-0.606,0.119c-0.322,0-0.571-0.094-0.741-0.281c-0.173-0.188-0.26-0.458-0.26-0.812
			c0-0.221,0.042-0.416,0.126-0.584c0.083-0.168,0.204-0.297,0.359-0.386c0.157-0.091,0.341-0.136,0.553-0.136
			c0.231,0,0.453,0.05,0.663,0.151l-0.177,0.454c-0.079-0.037-0.159-0.068-0.236-0.093C26.528,25.997,26.443,25.984,26.352,25.984z"
			/>
		<path fill="#3C3C3B" d="M29.179,27.681h-0.58v-0.873h-0.673v0.873h-0.58v-2.14h0.58v0.793h0.673v-0.793h0.58V27.681z"/>
		<path fill="#3C3C3B" d="M30.911,27.681h-1.27v-2.14h1.27v0.464H30.22v0.336h0.642v0.465H30.22v0.404h0.691V27.681z"/>
		<path fill="#3C3C3B" d="M32.239,25.984c-0.136,0-0.245,0.056-0.322,0.17c-0.076,0.112-0.114,0.268-0.114,0.465
			c0,0.413,0.156,0.619,0.47,0.619c0.095,0,0.187-0.013,0.276-0.04c0.087-0.026,0.177-0.059,0.267-0.096v0.489
			c-0.179,0.079-0.382,0.119-0.604,0.119c-0.325,0-0.572-0.094-0.745-0.281c-0.172-0.188-0.257-0.458-0.257-0.812
			c0-0.221,0.04-0.416,0.124-0.584s0.204-0.297,0.36-0.386c0.156-0.091,0.341-0.136,0.553-0.136c0.23,0,0.452,0.05,0.664,0.151
			l-0.178,0.454c-0.08-0.037-0.159-0.068-0.238-0.093C32.416,25.997,32.331,25.984,32.239,25.984z"/>
		<path fill="#3C3C3B" d="M35.06,27.681h-0.652l-0.422-0.818l-0.172,0.103v0.715h-0.581v-2.14h0.581v0.93
			c0.027-0.058,0.088-0.148,0.177-0.274l0.45-0.656h0.632l-0.675,0.958L35.06,27.681z"/>
		<path fill="#3C3C3B" d="M37.016,27.681h-0.579v-1.667h-0.521v-0.473h1.62v0.473h-0.52V27.681z"/>
		<path fill="#3C3C3B" d="M39.676,27.681h-0.582v-0.873h-0.671v0.873h-0.582v-2.14h0.582v0.793h0.671v-0.793h0.582V27.681z"/>
		<path fill="#3C3C3B" d="M41.409,27.681h-1.271v-2.14h1.271v0.464h-0.691v0.336h0.641v0.465h-0.641v0.404h0.691V27.681z"/>
		<path fill="#3C3C3B" d="M43.131,27.681h-0.569v-2.14h1.265v0.464h-0.695v0.408h0.641v0.464h-0.641V27.681z"/>
		<path fill="#3C3C3B" d="M44.178,27.681v-2.14h0.582v2.14H44.178z"/>
		<path fill="#3C3C3B" d="M45.801,26.902v0.778h-0.579v-2.14h0.702c0.581,0,0.872,0.211,0.872,0.633
			c0,0.247-0.122,0.439-0.362,0.575l0.622,0.932h-0.654l-0.454-0.778H45.801z M45.801,26.467h0.107c0.202,0,0.303-0.089,0.303-0.268
			c0-0.147-0.099-0.221-0.296-0.221h-0.114V26.467z"/>
		<path fill="#3C3C3B" d="M48.648,27.031c0,0.132-0.031,0.25-0.1,0.354c-0.067,0.103-0.164,0.182-0.292,0.24
			c-0.127,0.056-0.276,0.085-0.446,0.085c-0.143,0-0.262-0.01-0.359-0.03c-0.094-0.02-0.196-0.054-0.3-0.104V27.06
			c0.109,0.057,0.224,0.1,0.343,0.132c0.119,0.032,0.229,0.047,0.329,0.047c0.087,0,0.147-0.015,0.188-0.044
			c0.038-0.03,0.061-0.068,0.061-0.115c0-0.029-0.01-0.055-0.025-0.077c-0.015-0.022-0.04-0.044-0.078-0.066
			c-0.035-0.023-0.129-0.068-0.284-0.138c-0.139-0.064-0.243-0.125-0.314-0.184c-0.068-0.06-0.12-0.128-0.155-0.205
			c-0.034-0.077-0.049-0.168-0.049-0.275c0-0.196,0.071-0.35,0.215-0.46c0.144-0.11,0.341-0.166,0.591-0.166
			c0.222,0,0.447,0.051,0.677,0.154l-0.177,0.447c-0.2-0.091-0.372-0.138-0.518-0.138c-0.074,0-0.129,0.013-0.163,0.04
			c-0.035,0.026-0.052,0.059-0.052,0.098c0,0.042,0.022,0.08,0.064,0.112c0.043,0.033,0.163,0.094,0.354,0.182
			c0.184,0.083,0.312,0.171,0.384,0.268C48.613,26.766,48.648,26.887,48.648,27.031z"/>
		<path fill="#3C3C3B" d="M49.925,27.681h-0.578v-1.667h-0.524v-0.473h1.624v0.473h-0.521V27.681z"/>
	</g>
	<g>
		<path fill="#3C3C3B" d="M27.22,32.907v1.289c0,0.279-0.08,0.496-0.238,0.649c-0.157,0.154-0.388,0.232-0.686,0.232
			c-0.292,0-0.517-0.076-0.672-0.226c-0.158-0.148-0.236-0.364-0.236-0.645v-1.3h0.581v1.254c0,0.152,0.028,0.262,0.085,0.33
			c0.058,0.069,0.141,0.104,0.251,0.104c0.117,0,0.203-0.034,0.257-0.103c0.054-0.067,0.08-0.179,0.08-0.333v-1.252H27.22z"/>
		<path fill="#3C3C3B" d="M29.068,34.396c0,0.133-0.035,0.251-0.101,0.354c-0.068,0.102-0.165,0.182-0.292,0.238
			c-0.127,0.059-0.276,0.088-0.448,0.088c-0.141,0-0.26-0.012-0.357-0.031c-0.097-0.021-0.198-0.056-0.302-0.105v-0.515
			c0.11,0.057,0.227,0.101,0.346,0.133c0.117,0.03,0.229,0.047,0.326,0.047c0.086,0,0.149-0.016,0.189-0.044
			c0.04-0.03,0.06-0.068,0.06-0.116c0-0.029-0.008-0.054-0.022-0.076c-0.019-0.021-0.042-0.044-0.079-0.066
			c-0.035-0.022-0.131-0.067-0.284-0.138c-0.141-0.064-0.244-0.124-0.314-0.185c-0.069-0.06-0.121-0.127-0.155-0.205
			c-0.033-0.076-0.05-0.168-0.05-0.273c0-0.197,0.071-0.351,0.214-0.461c0.146-0.11,0.341-0.166,0.593-0.166
			c0.222,0,0.447,0.052,0.678,0.154l-0.177,0.447c-0.201-0.092-0.374-0.139-0.519-0.139c-0.075,0-0.132,0.014-0.164,0.039
			c-0.035,0.027-0.053,0.06-0.053,0.1c0,0.041,0.023,0.08,0.066,0.111c0.045,0.033,0.162,0.094,0.354,0.182
			c0.185,0.084,0.312,0.172,0.384,0.268S29.068,34.251,29.068,34.396z"/>
		<path fill="#3C3C3B" d="M30.67,35.047h-1.271v-2.14h1.271v0.462h-0.692v0.338h0.641v0.465h-0.641v0.403h0.692V35.047z"/>
		<path fill="#3C3C3B" d="M33.023,32.907h0.648l-0.702,2.14h-0.68l-0.697-2.14h0.647l0.292,1.084
			c0.061,0.24,0.095,0.408,0.101,0.503c0.006-0.068,0.02-0.153,0.039-0.256c0.021-0.102,0.04-0.184,0.055-0.241L33.023,32.907z"/>
		<path fill="#3C3C3B" d="M33.857,32.976c0-0.086,0.023-0.15,0.07-0.193c0.049-0.042,0.126-0.062,0.232-0.062
			s0.184,0.022,0.234,0.064c0.047,0.043,0.071,0.107,0.071,0.191c0,0.167-0.101,0.251-0.306,0.251
			C33.959,33.227,33.857,33.143,33.857,32.976z M34.444,35.047h-0.571v-1.658h0.571V35.047z"/>
		<path fill="#3C3C3B" d="M36.696,32.907v1.289c0,0.279-0.078,0.496-0.236,0.649c-0.158,0.154-0.388,0.232-0.687,0.232
			c-0.293,0-0.516-0.076-0.673-0.226c-0.155-0.148-0.234-0.364-0.234-0.645v-1.3h0.582v1.254c0,0.152,0.028,0.262,0.083,0.33
			c0.057,0.069,0.141,0.104,0.252,0.104c0.117,0,0.202-0.034,0.256-0.103c0.054-0.067,0.08-0.179,0.08-0.333v-1.252H36.696z"/>
		<path fill="#3C3C3B" d="M37.725,34.268v0.779h-0.578v-2.14h0.7c0.582,0,0.872,0.211,0.872,0.632c0,0.248-0.121,0.439-0.361,0.575
			l0.624,0.933h-0.657l-0.453-0.779H37.725z M37.725,33.832h0.107c0.204,0,0.305-0.089,0.305-0.267c0-0.147-0.101-0.222-0.299-0.222
			h-0.113V33.832z"/>
	</g>
	<g>
		<path fill="#3C3C3B" d="M26.67,42.282h-1.271v-2.139h1.271v0.463h-0.691v0.337h0.641v0.464h-0.641v0.405h0.691V42.282z"/>
		<path fill="#3C3C3B" d="M28.973,42.282h-0.667l-0.419-0.668l-0.413,0.668h-0.654l0.71-1.094l-0.666-1.045h0.641l0.385,0.661
			l0.374-0.661h0.66l-0.681,1.09L28.973,42.282z"/>
		<path fill="#3C3C3B" d="M30.483,42.282h-1.271v-2.139h1.271v0.463h-0.692v0.337h0.641v0.464h-0.641v0.405h0.692V42.282z"/>
		<path fill="#3C3C3B" d="M31.812,40.585c-0.139,0-0.246,0.059-0.321,0.17c-0.079,0.112-0.116,0.269-0.116,0.465
			c0,0.413,0.157,0.619,0.47,0.619c0.094,0,0.187-0.013,0.275-0.04c0.088-0.025,0.178-0.059,0.268-0.095v0.488
			c-0.178,0.079-0.381,0.119-0.605,0.119c-0.323,0-0.572-0.094-0.744-0.281s-0.259-0.458-0.259-0.812
			c0-0.221,0.043-0.414,0.127-0.584c0.084-0.166,0.202-0.298,0.358-0.387c0.157-0.089,0.342-0.136,0.553-0.136
			c0.232,0,0.452,0.05,0.663,0.151l-0.176,0.455c-0.079-0.037-0.16-0.068-0.238-0.095C31.987,40.6,31.902,40.585,31.812,40.585z"/>
		<path fill="#3C3C3B" d="M34.16,41.503v0.779h-0.579v-2.139h0.702c0.582,0,0.873,0.21,0.873,0.632c0,0.248-0.121,0.439-0.363,0.576
			l0.623,0.931h-0.657l-0.45-0.779H34.16z M34.16,41.068h0.109c0.201,0,0.303-0.089,0.303-0.267c0-0.147-0.1-0.223-0.297-0.223
			H34.16V41.068z"/>
		<path fill="#3C3C3B" d="M36.881,42.282h-1.27v-2.139h1.27v0.463h-0.691v0.337h0.641v0.464h-0.641v0.405h0.691V42.282z"/>
		<path fill="#3C3C3B" d="M39.259,41.209c0,0.486-0.154,0.812-0.464,0.981l0.525,0.602h-0.723l-0.377-0.476l-0.002-0.001v-0.002
			l-0.001-0.002c-0.336,0-0.593-0.094-0.771-0.282c-0.179-0.189-0.269-0.461-0.269-0.823c0-0.355,0.089-0.629,0.267-0.816
			s0.437-0.281,0.776-0.281s0.6,0.094,0.775,0.28S39.259,40.85,39.259,41.209z M37.786,41.209c0,0.413,0.144,0.621,0.432,0.621
			c0.146,0,0.255-0.051,0.326-0.151c0.07-0.101,0.106-0.257,0.106-0.47s-0.036-0.372-0.107-0.473
			c-0.073-0.103-0.18-0.153-0.322-0.153C37.931,40.583,37.786,40.792,37.786,41.209z"/>
		<path fill="#3C3C3B" d="M41.465,40.144v1.286c0,0.28-0.079,0.497-0.237,0.652c-0.159,0.152-0.388,0.229-0.687,0.229
			c-0.292,0-0.516-0.074-0.673-0.224c-0.155-0.149-0.234-0.365-0.234-0.644v-1.301h0.581v1.255c0,0.15,0.029,0.261,0.085,0.33
			c0.056,0.067,0.139,0.102,0.25,0.102c0.118,0,0.205-0.034,0.256-0.101c0.054-0.068,0.081-0.181,0.081-0.334v-1.252H41.465z"/>
		<path fill="#3C3C3B" d="M43.184,42.282h-1.27v-2.139h1.27v0.463h-0.691v0.337h0.641v0.464h-0.641v0.405h0.691V42.282z"/>
		<path fill="#3C3C3B" d="M44.959,41.633c0,0.132-0.035,0.25-0.103,0.354c-0.065,0.103-0.165,0.183-0.29,0.24
			c-0.127,0.058-0.275,0.085-0.446,0.085c-0.145,0-0.263-0.011-0.358-0.029c-0.098-0.021-0.198-0.056-0.303-0.104v-0.517
			c0.111,0.057,0.224,0.101,0.345,0.133c0.119,0.032,0.229,0.047,0.328,0.047c0.085,0,0.148-0.015,0.188-0.044
			c0.04-0.028,0.06-0.066,0.06-0.116c0-0.026-0.008-0.054-0.024-0.074c-0.017-0.023-0.042-0.045-0.077-0.067
			s-0.132-0.068-0.283-0.138c-0.142-0.064-0.245-0.125-0.315-0.185c-0.07-0.059-0.121-0.128-0.157-0.203
			c-0.032-0.078-0.049-0.17-0.049-0.276c0-0.197,0.072-0.35,0.215-0.459c0.145-0.111,0.342-0.167,0.592-0.167
			c0.221,0,0.448,0.052,0.679,0.154l-0.179,0.446c-0.199-0.092-0.373-0.137-0.518-0.137c-0.075,0-0.13,0.012-0.164,0.039
			c-0.034,0.025-0.052,0.059-0.052,0.098c0,0.042,0.022,0.08,0.065,0.112c0.045,0.033,0.162,0.094,0.354,0.181
			c0.183,0.084,0.312,0.172,0.384,0.269C44.923,41.368,44.959,41.488,44.959,41.633z"/>
		<path fill="#3C3C3B" d="M46.232,42.282h-0.578v-1.666h-0.521v-0.473h1.621v0.473h-0.521V42.282z"/>
	</g>
	<g>
		<path fill="#3C3C3B" d="M25.969,49.39h-0.569v-2.14h1.266v0.464h-0.696v0.408h0.642v0.464h-0.642V49.39z"/>
		<path fill="#3C3C3B" d="M28.285,49.39h-1.27v-2.14h1.27v0.464h-0.691v0.337h0.641v0.465h-0.641v0.403h0.691V49.39z"/>
		<path fill="#3C3C3B" d="M29.933,49.39h-1.271v-2.14h1.271v0.464h-0.694v0.337h0.643v0.465h-0.643v0.403h0.694V49.39z"/>
		<path fill="#3C3C3B" d="M30.306,49.39v-2.14h0.579v1.672h0.825v0.468H30.306z"/>
		<path fill="#3C3C3B" d="M33.774,49.39h-0.579v-1.668h-0.523V47.25h1.623v0.472h-0.521V49.39z"/>
		<path fill="#3C3C3B" d="M36.436,49.39h-0.582v-0.871h-0.671v0.871H34.6v-2.14h0.583v0.794h0.671V47.25h0.582V49.39z"/>
		<path fill="#3C3C3B" d="M38.167,49.39h-1.269v-2.14h1.269v0.464h-0.691v0.337h0.642v0.465h-0.642v0.403h0.691V49.39z"/>
		<path fill="#3C3C3B" d="M40.255,49.39l-0.438-1.541h-0.015c0.022,0.263,0.032,0.467,0.032,0.613v0.928h-0.513v-2.14h0.771
			l0.446,1.52h0.012l0.437-1.52h0.773v2.14h-0.532v-0.938c0-0.049,0-0.103,0.002-0.163c0.002-0.059,0.009-0.203,0.018-0.437h-0.012
			l-0.432,1.538H40.255z"/>
		<path fill="#3C3C3B" d="M43.532,49.39l-0.104-0.401h-0.695l-0.108,0.401h-0.635l0.696-2.147h0.772l0.707,2.147H43.532z
			 M43.307,48.516l-0.093-0.352c-0.02-0.079-0.047-0.181-0.077-0.304c-0.03-0.125-0.051-0.213-0.061-0.266
			c-0.009,0.049-0.027,0.132-0.053,0.245s-0.082,0.34-0.171,0.676H43.307z"/>
		<path fill="#3C3C3B" d="M45.257,48.138h0.923v1.152c-0.252,0.086-0.527,0.13-0.827,0.13c-0.33,0-0.586-0.097-0.765-0.287
			c-0.181-0.191-0.271-0.465-0.271-0.818c0-0.346,0.098-0.614,0.295-0.807c0.197-0.193,0.474-0.289,0.829-0.289
			c0.134,0,0.262,0.013,0.381,0.039s0.223,0.057,0.314,0.096l-0.185,0.454c-0.153-0.075-0.323-0.115-0.509-0.115
			c-0.168,0-0.298,0.056-0.39,0.166c-0.093,0.109-0.139,0.268-0.139,0.471c0,0.201,0.042,0.353,0.126,0.457
			c0.083,0.105,0.202,0.157,0.36,0.157c0.084,0,0.164-0.008,0.236-0.024v-0.336h-0.381V48.138z"/>
		<path fill="#3C3C3B" d="M46.614,49.39v-2.14h0.582v2.14H46.614z"/>
		<path fill="#3C3C3B" d="M48.61,47.692c-0.137,0-0.243,0.057-0.32,0.17c-0.078,0.114-0.116,0.269-0.116,0.467
			c0,0.411,0.157,0.617,0.471,0.617c0.094,0,0.188-0.013,0.275-0.04c0.089-0.026,0.178-0.058,0.267-0.094v0.488
			c-0.178,0.078-0.38,0.119-0.605,0.119c-0.323,0-0.572-0.094-0.742-0.281c-0.172-0.188-0.259-0.458-0.259-0.812
			c0-0.223,0.041-0.417,0.126-0.584c0.083-0.169,0.204-0.297,0.357-0.389c0.159-0.09,0.344-0.135,0.554-0.135
			c0.231,0,0.453,0.051,0.663,0.151l-0.177,0.454c-0.079-0.036-0.159-0.066-0.237-0.092C48.787,47.705,48.703,47.692,48.61,47.692z"
			/>
	</g>
	<g>
		<path fill="#3C3C3B" d="M26.333,20.542L25.896,19h-0.014c0.021,0.263,0.03,0.467,0.03,0.612v0.931h-0.513V18.4h0.771l0.448,1.521
			h0.011l0.438-1.521h0.772v2.142h-0.531v-0.938c0-0.05,0-0.104,0.001-0.163c0.002-0.06,0.009-0.206,0.021-0.438h-0.014l-0.432,1.54
			H26.333z"/>
		<path fill="#3C3C3B" d="M29.615,20.542l-0.105-0.401h-0.696l-0.108,0.401h-0.637l0.7-2.151h0.771l0.708,2.151H29.615z
			 M29.391,19.667l-0.093-0.352c-0.022-0.078-0.049-0.178-0.078-0.303c-0.03-0.125-0.054-0.213-0.062-0.267
			c-0.01,0.049-0.025,0.132-0.052,0.247c-0.026,0.114-0.083,0.339-0.173,0.675H29.391z"/>
		<path fill="#3C3C3B" d="M32.311,20.542h-0.655l-0.423-0.818l-0.172,0.102v0.716h-0.582V18.4h0.582v0.93
			c0.03-0.058,0.09-0.148,0.178-0.274l0.449-0.656h0.632l-0.675,0.96L32.311,20.542z"/>
		<path fill="#3C3C3B" d="M33.812,20.542h-1.271V18.4h1.271v0.465h-0.693v0.336h0.643v0.464h-0.643v0.404h0.693V20.542z"/>
		<path fill="#3C3C3B" d="M36.281,20.542l-0.105-0.401h-0.696l-0.107,0.401h-0.637l0.699-2.151h0.771l0.709,2.151H36.281z
			 M36.057,19.667l-0.093-0.352c-0.022-0.078-0.048-0.178-0.079-0.303c-0.029-0.125-0.051-0.213-0.059-0.267
			c-0.011,0.049-0.028,0.132-0.054,0.247c-0.026,0.114-0.084,0.339-0.173,0.675H36.057z"/>
		<path fill="#3C3C3B" d="M37.925,20.542V18.4h0.578v1.674h0.825v0.468H37.925z"/>
		<path fill="#3C3C3B" d="M39.672,20.542V18.4h0.581v2.142H39.672z"/>
		<path fill="#3C3C3B" d="M42.117,19.892c0,0.133-0.035,0.251-0.101,0.354c-0.068,0.103-0.165,0.183-0.293,0.241
			c-0.126,0.057-0.275,0.085-0.446,0.085c-0.142,0-0.262-0.01-0.357-0.03c-0.099-0.02-0.2-0.055-0.304-0.105v-0.515
			c0.11,0.057,0.224,0.102,0.346,0.132c0.117,0.033,0.228,0.048,0.326,0.048c0.087,0,0.149-0.015,0.19-0.044
			c0.04-0.03,0.059-0.068,0.059-0.115c0-0.03-0.006-0.055-0.023-0.077c-0.017-0.022-0.041-0.044-0.077-0.066
			c-0.037-0.022-0.131-0.069-0.284-0.139c-0.141-0.062-0.246-0.124-0.314-0.184c-0.07-0.06-0.121-0.128-0.156-0.206
			c-0.034-0.078-0.051-0.168-0.051-0.274c0-0.197,0.072-0.351,0.216-0.461c0.144-0.109,0.341-0.166,0.591-0.166
			c0.223,0,0.448,0.051,0.68,0.154l-0.179,0.447c-0.199-0.091-0.372-0.138-0.517-0.138c-0.076,0-0.132,0.014-0.165,0.04
			c-0.033,0.026-0.052,0.059-0.052,0.098c0,0.042,0.022,0.08,0.066,0.113c0.043,0.033,0.161,0.094,0.353,0.182
			c0.186,0.083,0.313,0.172,0.384,0.267C42.081,19.628,42.117,19.748,42.117,19.892z"/>
		<path fill="#3C3C3B" d="M43.394,20.542h-0.579v-1.669H42.29V18.4h1.625v0.473h-0.521V20.542z"/>
	</g>
</g>
</svg>
