<?xml version="1.0" encoding="utf-8"?>
<!-- Generator: Adobe Illustrator 16.0.0, SVG Export Plug-In . SVG Version: 6.00 Build 0)  -->
<!DOCTYPE svg PUBLIC "-//W3C//DTD SVG 1.1//EN" "http://www.w3.org/Graphics/SVG/1.1/DTD/svg11.dtd">
<svg version="1.1" id="Ebene_1" xmlns="http://www.w3.org/2000/svg" xmlns:xlink="http://www.w3.org/1999/xlink" x="0px" y="0px"
	 width="64px" height="64px" viewBox="0 0 64 64" enable-background="new 0 0 64 64" xml:space="preserve">
<g>
	<g>
		<linearGradient id="SVGID_1_" gradientUnits="userSpaceOnUse" x1="51.9775" y1="3.6372" x2="72.5866" y2="60.2601">
			<stop  offset="0" style="stop-color:#C6C6C5"/>
			<stop  offset="1" style="stop-color:#6F6F6F"/>
		</linearGradient>
		<polygon fill="url(#SVGID_1_)" points="63.625,3.958 60.938,0.375 60.938,59.938 63.625,63.521 		"/>
		<path fill="#9D9D9C" d="M63.625,63.896c-0.116,0-0.228-0.055-0.3-0.15l-2.688-3.584c-0.049-0.064-0.075-0.143-0.075-0.225V0.375
			c0-0.162,0.104-0.305,0.257-0.356c0.15-0.049,0.32,0.001,0.418,0.131l2.688,3.583C63.974,3.798,64,3.877,64,3.958v59.563
			c0,0.16-0.104,0.305-0.257,0.355C63.705,63.891,63.665,63.896,63.625,63.896z M61.312,59.812l1.938,2.584V4.083L61.312,1.5V59.812
			z"/>
	</g>
</g>
<g>
	<g>
		<linearGradient id="SVGID_2_" gradientUnits="userSpaceOnUse" x1="33.6621" y1="51.6914" x2="40.9691" y2="71.7672">
			<stop  offset="0" style="stop-color:#C6C6C5"/>
			<stop  offset="1" style="stop-color:#6F6F6F"/>
		</linearGradient>
		<polygon fill="url(#SVGID_2_)" points="60.938,59.938 11.006,59.938 13.693,63.521 63.625,63.521 		"/>
		<path fill="#9D9D9C" d="M63.625,63.896H13.693c-0.118,0-0.229-0.057-0.3-0.15l-2.688-3.584c-0.085-0.113-0.1-0.266-0.035-0.393
			c0.063-0.127,0.193-0.207,0.335-0.207h49.932c0.118,0,0.229,0.057,0.3,0.15l2.688,3.584c0.085,0.113,0.1,0.266,0.035,0.393
			C63.896,63.816,63.767,63.896,63.625,63.896z M13.881,63.146h48.994l-2.125-2.834H11.756L13.881,63.146z"/>
	</g>
</g>
<g>
	<g>
		<linearGradient id="SVGID_3_" gradientUnits="userSpaceOnUse" x1="23.4805" y1="-4.1655" x2="48.4643" y2="64.477">
			<stop  offset="0.5" style="stop-color:#FFFFFF"/>
			<stop  offset="1" style="stop-color:#ECECEC"/>
		</linearGradient>
		<rect x="11.006" y="0.375" fill="url(#SVGID_3_)" width="49.932" height="59.562"/>
		<path fill="#9D9D9C" d="M60.938,60.312H11.006c-0.207,0-0.375-0.168-0.375-0.375V0.375C10.631,0.168,10.799,0,11.006,0h49.932
			c0.207,0,0.375,0.168,0.375,0.375v59.562C61.312,60.145,61.145,60.312,60.938,60.312z M11.381,59.562h49.182V0.75H11.381V59.562z"
			/>
	</g>
</g>
<g>
	<g>
		<linearGradient id="SVGID_4_" gradientUnits="userSpaceOnUse" x1="24.2725" y1="25.709" x2="40.4766" y2="25.709">
			<stop  offset="0.3103" style="stop-color:#E30613"/>
			<stop  offset="1" style="stop-color:#BE1622"/>
		</linearGradient>
		<path fill="url(#SVGID_4_)" d="M40.477,42.049H33.57V23.138l0.066-3.106l0.112-3.398c-1.147,1.148-1.944,1.9-2.392,2.258
			l-3.755,3.017l-3.33-4.158L34.8,9.369h5.677V42.049z"/>
		<path fill="#801D18" d="M40.477,42.299H33.57c-0.138,0-0.25-0.113-0.25-0.25V23.138l0.066-3.111l0.092-2.771
			c-0.923,0.913-1.568,1.514-1.965,1.831l-3.755,3.017c-0.051,0.042-0.119,0.062-0.184,0.054c-0.065-0.007-0.126-0.041-0.168-0.092
			l-3.33-4.158c-0.041-0.052-0.061-0.118-0.053-0.184c0.007-0.066,0.04-0.126,0.093-0.168l10.527-8.382
			c0.044-0.035,0.099-0.054,0.155-0.054h5.677c0.138,0,0.25,0.112,0.25,0.25v32.68C40.727,42.186,40.614,42.299,40.477,42.299z
			 M33.82,41.799h6.406V9.619h-5.34l-10.263,8.171l3.018,3.767l3.56-2.86c0.438-0.35,1.235-1.103,2.371-2.24
			c0.072-0.072,0.182-0.093,0.276-0.053c0.094,0.041,0.153,0.135,0.15,0.238l-0.112,3.398l-0.066,3.103V41.799z"/>
	</g>
</g>
<g>
	<g>
		
			<linearGradient id="SVGID_5_" gradientUnits="userSpaceOnUse" x1="-460.0029" y1="-357.021" x2="-457.9072" y2="-357.021" gradientTransform="matrix(-4.371139e-08 1 -1 -4.371139e-08 -321.0493 510.2314)">
			<stop  offset="0.3103" style="stop-color:#E30613"/>
			<stop  offset="1" style="stop-color:#BE1622"/>
		</linearGradient>
		<path fill="url(#SVGID_5_)" d="M17.394,52.324v-2.096h37.157v2.096H17.394z"/>
		<path fill="#801D18" d="M54.551,52.574H17.394c-0.138,0-0.25-0.113-0.25-0.25v-2.096c0-0.137,0.112-0.25,0.25-0.25h37.157
			c0.138,0,0.25,0.113,0.25,0.25v2.096C54.801,52.461,54.688,52.574,54.551,52.574z M17.644,52.074h36.657v-1.596H17.644V52.074z"/>
	</g>
</g>
</svg>
